<?xml version="1.0" encoding="utf-8"?>
<!-- Generator: Adobe Illustrator 26.5.0, SVG Export Plug-In . SVG Version: 6.00 Build 0)  -->
<svg version="1.1" id="Layer_1" xmlns="http://www.w3.org/2000/svg" xmlns:xlink="http://www.w3.org/1999/xlink" x="0px" y="0px"
	 viewBox="0 0 32 32" style="enable-background:new 0 0 32 32;" xml:space="preserve">
<style type="text/css">
	.st0{fill:#FFFFFF;}
</style>
<g id="Layer_2_00000003827046168251140480000000390095458183307907_">
	<g>
		<path class="st0" d="M16,2C8.3,2,2,8.3,2,16s6.3,14,14,14s14-6.3,14-14S23.7,2,16,2z M16,28.9C8.9,28.9,3.1,23.1,3.1,16
			S8.9,3.1,16,3.1S28.9,8.9,28.9,16C28.9,23.1,23.1,28.9,16,28.9z"/>
		<path class="st0" d="M24.4,10.9H23V9.5c0-0.3-0.2-0.6-0.5-0.6c-0.3,0-0.6,0.2-0.6,0.5c0,0,0,0.1,0,0.1v1.4h-1.5V9.5
			c0-0.3-0.3-0.5-0.6-0.5c-0.3,0-0.5,0.3-0.5,0.6v1.4h-1.5V9.5c0-0.3-0.2-0.6-0.6-0.6c-0.3,0-0.5,0.2-0.5,0.6v1.4h-1.5V9.5
			C15.2,9.2,15,9,14.7,9s-0.6,0.2-0.6,0.6v1.4h-1.5V9.5c0-0.3-0.2-0.5-0.5-0.5c-0.3,0-0.6,0.2-0.6,0.6l0,0v1.4H10V9.5
			c0.1-0.3,0-0.6-0.3-0.7S9.1,8.8,9,9.1C8.9,9.2,8.9,9.4,9,9.5v1.4H7.6c-0.5,0-0.9,0.3-0.9,0.8c0,0,0,0,0,0v8.5
			c0,0.5,0.4,0.8,0.9,0.8H9v1.4c0,0.3,0.2,0.6,0.5,0.6c0.3,0,0.6-0.2,0.6-0.5c0,0,0-0.1,0-0.1v-1.4h1.5v1.4c0,0.3,0.2,0.5,0.6,0.5
			c0.3,0,0.5-0.3,0.5-0.5v-1.4h1.5v1.4c0,0.3,0.2,0.5,0.6,0.5s0.6-0.2,0.6-0.5v-1.4h1.5v1.4c0,0.3,0.2,0.5,0.6,0.5
			c0.3,0,0.5-0.2,0.5-0.5v-1.4h1.5v1.4c0,0.3,0.2,0.5,0.5,0.5c0.3,0,0.5-0.2,0.5-0.5v-1.4H22v1.4c0,0.3,0.2,0.6,0.5,0.6
			c0.3,0,0.6-0.2,0.6-0.5c0,0,0-0.1,0-0.1v-1.4h1.3c0.5,0,0.9-0.3,0.9-0.8v-8.5C25.3,11.3,24.9,10.9,24.4,10.9
			C24.4,10.9,24.4,10.9,24.4,10.9z M24.2,20H7.8v-8h16.4V20z"/>
	</g>
</g>
</svg>
