<?xml version="1.0" encoding="utf-8"?>
<!-- Generator: Adobe Illustrator 26.5.0, SVG Export Plug-In . SVG Version: 6.00 Build 0)  -->
<svg version="1.1" id="Layer_1" xmlns="http://www.w3.org/2000/svg" xmlns:xlink="http://www.w3.org/1999/xlink" x="0px" y="0px"
	 viewBox="0 0 32 32" style="enable-background:new 0 0 32 32;" xml:space="preserve">
<style type="text/css">
	.st0{fill:#FFFFFF;}
</style>
<g id="Layer_2_00000067220107901066200970000014880258413749816460_">
	<path class="st0" d="M16,19.3c-2.9,0-4.6-2.9-4.6-3c-0.1-0.2-0.1-0.4,0-0.5c0.1-0.1,1.7-3,4.6-3s4.6,2.9,4.6,3
		c0.1,0.2,0.1,0.4,0,0.5C20.6,16.4,18.9,19.3,16,19.3z M12.5,16c0.8,1.2,2.1,2.1,3.5,2.2c1.5-0.1,2.8-0.9,3.5-2.2
		c-0.8-1.2-2.1-2.1-3.5-2.2C14.5,13.9,13.2,14.7,12.5,16z"/>
	<path class="st0" d="M17.4,16c0-0.8-0.6-1.4-1.4-1.4s-1.4,0.6-1.4,1.4c0,0.8,0.6,1.4,1.4,1.4C16.8,17.4,17.4,16.8,17.4,16
		C17.4,16,17.4,16,17.4,16z"/>
	<path class="st0" d="M16,30C8.3,30,2,23.7,2,16S8.3,2,16,2s14,6.3,14,14S23.7,30,16,30z M16,3.1C8.9,3.1,3.1,8.9,3.1,16
		S8.9,28.9,16,28.9S28.9,23.1,28.9,16C28.9,8.9,23.1,3.1,16,3.1z"/>
	<path class="st0" d="M23.6,21.4H8.4c-0.3,0-0.5-0.2-0.5-0.5l0,0v-9.2c0-0.6,0.4-1,1-1h14.2c0.6,0,1,0.4,1,1v9.2
		C24.1,21.1,23.8,21.4,23.6,21.4z M9,20.3h14v-8.7H8.9L9,20.3z"/>
</g>
</svg>
